# xmcd
#
# Track frame offsets:
# 150
# 11054
# 23394
# 32637
# 45877
# 58237
# 68734
# 87263
# 99980
# 108042
#
# Disc length: 1580 seconds
#
# Revision: 0
# Processed by: cddbd v1.4PL0 Copyright (c) Steve Scherf et al.
# Submitted via: Axialis_AX_CDPlayer 2.6
#
DISCID=69062a0a
DTITLE=Dolly Parton - All I Can Do
DYEAR=1900
DGENRE=
TTITLE0=All I Can Do
TTITLE1=The Fire That Keeps You Warm
TTITLE2=When The Sun Goes Down Tomorrow
TTITLE3=I'm A Drifter
TTITLE4=Falling Out Of Love With Me
TTITLE5=Shattered Image
TTITLE6=Boulder To Birmingham
TTITLE7=Precher Tom
TTITLE8=Life's Like Poetry
TTITLE9=Hey Lucky Lady
EXTD=
EXTT0=
EXTT1=
EXTT2=
EXTT3=
EXTT4=
EXTT5=
EXTT6=
EXTT7=
EXTT8=
EXTT9=
PLAYORDER=
